<mxfile host="app.diagrams.net" modified="2024-01-21T19:11:19.759Z" agent="Mozilla/5.0 (Windows NT 10.0; Win64; x64) AppleWebKit/537.36 (KHTML, like Gecko) Chrome/120.0.0.0 Safari/537.36 Edg/120.0.0.0" etag="LE2uZMjNGIvAAEE5R1Yt" version="22.1.21" type="github">
  <diagram name="Trang-1" id="1QO2ivPM9eGkJM-EcB1Y">
    <mxGraphModel dx="1226" dy="679" grid="1" gridSize="10" guides="1" tooltips="1" connect="1" arrows="1" fold="1" page="1" pageScale="1" pageWidth="827" pageHeight="1169" math="0" shadow="0">
      <root>
        <mxCell id="0" />
        <mxCell id="1" parent="0" />
        <mxCell id="Z5t2Ctffni-CQSF2CJ5J-1" value="Start" style="rounded=1;whiteSpace=wrap;html=1;absoluteArcSize=0;" parent="1" vertex="1">
          <mxGeometry x="353" y="38" width="120" height="60" as="geometry" />
        </mxCell>
        <mxCell id="Z5t2Ctffni-CQSF2CJ5J-2" value="StartTimer" style="rounded=1;whiteSpace=wrap;html=1;" parent="1" vertex="1">
          <mxGeometry x="353" y="318" width="120" height="60" as="geometry" />
        </mxCell>
        <mxCell id="Z5t2Ctffni-CQSF2CJ5J-3" value="&lt;b&gt;MASTER&lt;/b&gt;" style="text;html=1;align=center;verticalAlign=middle;resizable=0;points=[];autosize=1;strokeColor=none;fillColor=none;strokeWidth=2;" parent="1" vertex="1">
          <mxGeometry x="5" y="8" width="70" height="30" as="geometry" />
        </mxCell>
        <mxCell id="Z5t2Ctffni-CQSF2CJ5J-4" value="Fixed GPS &amp;amp;&amp;amp; !StartTimer" style="rhombus;whiteSpace=wrap;html=1;" parent="1" vertex="1">
          <mxGeometry x="358" y="148" width="110" height="100" as="geometry" />
        </mxCell>
        <mxCell id="Fadt9UQrtSrhKDwyfbyb-7" value="UART_IRQ_Callback" style="rounded=1;whiteSpace=wrap;html=1;" vertex="1" parent="1">
          <mxGeometry x="560" y="318" width="120" height="60" as="geometry" />
        </mxCell>
        <mxCell id="Fadt9UQrtSrhKDwyfbyb-8" value="Init TimerCallback&lt;br&gt;" style="whiteSpace=wrap;html=1;" vertex="1" parent="1">
          <mxGeometry x="720" y="318" width="120" height="60" as="geometry" />
        </mxCell>
        <mxCell id="Fadt9UQrtSrhKDwyfbyb-9" value="" style="edgeStyle=none;orthogonalLoop=1;jettySize=auto;html=1;rounded=0;exitX=1;exitY=0.5;exitDx=0;exitDy=0;entryX=0;entryY=0.5;entryDx=0;entryDy=0;" edge="1" parent="1" source="Fadt9UQrtSrhKDwyfbyb-7" target="Fadt9UQrtSrhKDwyfbyb-8">
          <mxGeometry width="100" relative="1" as="geometry">
            <mxPoint x="650" y="258" as="sourcePoint" />
            <mxPoint x="750" y="258" as="targetPoint" />
            <Array as="points" />
          </mxGeometry>
        </mxCell>
      </root>
    </mxGraphModel>
  </diagram>
</mxfile>
